RedHatDisplay-Regular.ufo
<glyph name="dollar" format="2">
  <advance width="567"/>
  <unicode hex="0024"/>
  <outline>
    <contour>
      <point x="256" y="-67" type="line"/>
      <point x="307" y="-67" type="line"/>
      <point x="307" y="19" type="line"/>
      <point x="443" y="24"/>
      <point x="537" y="99"/>
      <point x="537" y="205" type="curve" smooth="yes"/>
      <point x="537" y="300"/>
      <point x="485" y="346"/>
      <point x="341" y="378" type="curve" smooth="yes"/>
      <point x="307" y="385" type="line"/>
      <point x="307" y="616" type="line"/>
      <point x="365" y="607"/>
      <point x="425" y="582"/>
      <point x="486" y="539" type="curve"/>
      <point x="524" y="595" type="line"/>
      <point x="460" y="642"/>
      <point x="384" y="671"/>
      <point x="307" y="680" type="curve"/>
      <point x="307" y="767" type="line"/>
      <point x="256" y="767" type="line"/>
      <point x="256" y="682" type="line" smooth="yes"/>
      <point x="128" y="682"/>
      <point x="37" y="610"/>
      <point x="37" y="504" type="curve" smooth="yes"/>
      <point x="37" y="409"/>
      <point x="87" y="363"/>
      <point x="221" y="334" type="curve" smooth="yes"/>
      <point x="256" y="327" type="line"/>
      <point x="256" y="81" type="line"/>
      <point x="185" y="91"/>
      <point x="120" y="126"/>
      <point x="68" y="182" type="curve"/>
      <point x="22" y="133" type="line"/>
      <point x="82" y="67"/>
      <point x="164" y="29"/>
      <point x="256" y="21" type="curve"/>
    </contour>
    <contour>
      <point x="256" y="395" type="line"/>
      <point x="240" y="398" type="line" smooth="yes"/>
      <point x="138" y="420"/>
      <point x="106" y="447"/>
      <point x="106" y="510" type="curve" smooth="yes"/>
      <point x="106" y="575"/>
      <point x="166" y="619"/>
      <point x="256" y="620" type="curve" smooth="yes"/>
    </contour>
    <contour>
      <point x="307" y="79" type="curve"/>
      <point x="307" y="317" type="line"/>
      <point x="322" y="314" type="line" smooth="yes"/>
      <point x="433" y="291"/>
      <point x="466" y="264"/>
      <point x="466" y="202" type="curve" smooth="yes"/>
      <point x="466" y="133"/>
      <point x="400" y="84"/>
    </contour>
  </outline>
</glyph>
<glyph name="ampersand" format="2">
  <advance width="653"/>
  <unicode hex="0026"/>
  <outline>
    <contour>
      <point x="257" y="-11" type="curve" smooth="yes"/>
      <point x="345" y="-11"/>
      <point x="423" y="23"/>
      <point x="481" y="84" type="curve"/>
      <point x="522" y="49"/>
      <point x="563" y="16"/>
      <point x="601" y="-13" type="curve"/>
      <point x="646" y="40" type="line"/>
      <point x="608" y="69"/>
      <point x="565" y="104"/>
      <point x="522" y="141" type="curve"/>
      <point x="563" y="203"/>
      <point x="591" y="277"/>
      <point x="608" y="363" type="curve"/>
      <point x="540" y="374" type="line"/>
      <point x="527" y="304"/>
      <point x="505" y="239"/>
      <point x="472" y="186" type="curve"/>
      <point x="404" y="248"/>
      <point x="337" y="314"/>
      <point x="282" y="375" type="curve"/>
      <point x="332" y="405" type="line" smooth="yes"/>
      <point x="409" y="450"/>
      <point x="444" y="501"/>
      <point x="444" y="566" type="curve" smooth="yes"/>
      <point x="444" y="651"/>
      <point x="378" y="711"/>
      <point x="286" y="711" type="curve" smooth="yes"/>
      <point x="189" y="711"/>
      <point x="117" y="640"/>
      <point x="117" y="546" type="curve" smooth="yes"/>
      <point x="117" y="492"/>
      <point x="134" y="448"/>
      <point x="181" y="389" type="curve"/>
      <point x="65" y="325"/>
      <point x="26" y="272"/>
      <point x="26" y="188" type="curve" smooth="yes"/>
      <point x="26" y="69"/>
      <point x="118" y="-11"/>
    </contour>
    <contour>
      <point x="243" y="421" type="line"/>
      <point x="202" y="472"/>
      <point x="187" y="506"/>
      <point x="187" y="547" type="curve" smooth="yes"/>
      <point x="187" y="608"/>
      <point x="228" y="651"/>
      <point x="284" y="651" type="curve" smooth="yes"/>
      <point x="334" y="651"/>
      <point x="374" y="613"/>
      <point x="374" y="564" type="curve" smooth="yes"/>
      <point x="374" y="519"/>
      <point x="349" y="483"/>
      <point x="300" y="454" type="curve" smooth="yes"/>
    </contour>
    <contour>
      <point x="261" y="52" type="curve" smooth="yes"/>
      <point x="162" y="52"/>
      <point x="96" y="107"/>
      <point x="96" y="190" type="curve" smooth="yes"/>
      <point x="96" y="251"/>
      <point x="125" y="290"/>
      <point x="220" y="341" type="curve"/>
      <point x="279" y="273"/>
      <point x="355" y="198"/>
      <point x="432" y="128" type="curve"/>
      <point x="387" y="79"/>
      <point x="327" y="52"/>
    </contour>
  </outline>
</glyph>
<glyph name="asterisk" format="2">
  <advance width="446"/>
  <unicode hex="002A"/>
  <outline>
    <contour>
      <point x="196" y="341" type="line"/>
      <point x="250" y="341" type="line"/>
      <point x="248" y="479" type="line"/>
      <point x="366" y="406" type="line"/>
      <point x="397" y="451" type="line"/>
      <point x="272" y="524" type="line"/>
      <point x="392" y="596" type="line"/>
      <point x="362" y="640" type="line"/>
      <point x="249" y="570" type="line"/>
      <point x="250" y="700" type="line"/>
      <point x="196" y="700" type="line"/>
      <point x="197" y="569" type="line"/>
      <point x="83" y="640" type="line"/>
      <point x="54" y="596" type="line"/>
      <point x="174" y="524" type="line"/>
      <point x="50" y="451" type="line"/>
      <point x="79" y="406" type="line"/>
      <point x="198" y="479" type="line"/>
    </contour>
  </outline>
</glyph>
<glyph name="hyphen" format="2">
  <advance width="447"/>
  <unicode hex="002D"/>
  <outline>
    <contour>
      <point x="49" y="248" type="line"/>
      <point x="398" y="248" type="line"/>
      <point x="398" y="314" type="line"/>
      <point x="49" y="314" type="line"/>
    </contour>
  </outline>
</glyph>
<glyph name="slash" format="2">
  <advance width="457"/>
  <unicode hex="002F"/>
  <outline>
    <contour>
      <point x="-67" y="-204" type="line"/>
      <point x="7" y="-204" type="line"/>
      <point x="429" y="700" type="line"/>
      <point x="354" y="700" type="line"/>
    </contour>
  </outline>
</glyph>
<glyph name="zero" format="2">
  <advance width="662"/>
  <unicode hex="0030"/>
  <outline>
    <contour>
      <point x="331" y="-11" type="curve" smooth="yes"/>
      <point x="498" y="-11"/>
      <point x="616" y="138"/>
      <point x="616" y="350" type="curve" smooth="yes"/>
      <point x="616" y="562"/>
      <point x="498" y="711"/>
      <point x="331" y="711" type="curve" smooth="yes"/>
      <point x="164" y="711"/>
      <point x="46" y="562"/>
      <point x="46" y="350" type="curve" smooth="yes"/>
      <point x="46" y="138"/>
      <point x="164" y="-11"/>
    </contour>
    <contour>
      <point x="331" y="54" type="curve" smooth="yes"/>
      <point x="202" y="54"/>
      <point x="119" y="171"/>
      <point x="119" y="350" type="curve" smooth="yes"/>
      <point x="119" y="529"/>
      <point x="202" y="646"/>
      <point x="331" y="646" type="curve" smooth="yes"/>
      <point x="460" y="646"/>
      <point x="543" y="529"/>
      <point x="543" y="350" type="curve" smooth="yes"/>
      <point x="543" y="171"/>
      <point x="460" y="54"/>
    </contour>
  </outline>
</glyph>
<glyph name="four" format="2">
  <advance width="619"/>
  <unicode hex="0034"/>
  <outline>
    <contour>
      <point x="425" y="0" type="line"/>
      <point x="498" y="0" type="line"/>
      <point x="498" y="187" type="line"/>
      <point x="582" y="187" type="line"/>
      <point x="582" y="250" type="line"/>
      <point x="498" y="250" type="line"/>
      <point x="498" y="700" type="line"/>
      <point x="420" y="700" type="line"/>
      <point x="27" y="245" type="line"/>
      <point x="27" y="187" type="line"/>
      <point x="425" y="187" type="line"/>
    </contour>
    <contour>
      <point x="117" y="250" type="line"/>
      <point x="425" y="607" type="line"/>
      <point x="425" y="250" type="line"/>
    </contour>
  </outline>
</glyph>
<glyph name="L" format="2">
  <advance width="604"/>
  <unicode hex="004C"/>
  <anchor x="115" y="700" name="top"/>
  <anchor x="343" y="0" name="bottom"/>
  <outline>
    <contour>
      <point x="77" y="0" type="line"/>
      <point x="571" y="0" type="line"/>
      <point x="571" y="69" type="line"/>
      <point x="154" y="69" type="line"/>
      <point x="154" y="700" type="line"/>
      <point x="77" y="700" type="line"/>
    </contour>
  </outline>
</glyph>
<glyph name="S" format="2">
  <advance width="600"/>
  <unicode hex="0053"/>
  <note>
Version created Fri Aug  3 17:49:29 2018
</note>
  <anchor x="281" y="702" name="top"/>
  <anchor x="288" y="2" name="bottom"/>
  <outline>
    <contour>
      <point x="304" y="-10" type="curve" smooth="yes"/>
      <point x="462" y="-10"/>
      <point x="572" y="76"/>
      <point x="572" y="199" type="curve" smooth="yes"/>
      <point x="572" y="308"/>
      <point x="506" y="366"/>
      <point x="353" y="391" type="curve" smooth="yes"/>
      <point x="253" y="407" type="line" smooth="yes"/>
      <point x="151" y="423"/>
      <point x="111" y="455"/>
      <point x="111" y="520" type="curve" smooth="yes"/>
      <point x="111" y="593"/>
      <point x="179" y="643"/>
      <point x="279" y="643" type="curve" smooth="yes"/>
      <point x="359" y="643"/>
      <point x="437" y="614"/>
      <point x="514" y="556" type="curve"/>
      <point x="558" y="616" type="line"/>
      <point x="479" y="676"/>
      <point x="380" y="709"/>
      <point x="282" y="709" type="curve" smooth="yes"/>
      <point x="135" y="709"/>
      <point x="36" y="630"/>
      <point x="36" y="514" type="curve" smooth="yes"/>
      <point x="36" y="415"/>
      <point x="98" y="359"/>
      <point x="233" y="337" type="curve" smooth="yes"/>
      <point x="334" y="321" type="line" smooth="yes"/>
      <point x="449" y="302"/>
      <point x="495" y="267"/>
      <point x="495" y="195" type="curve" smooth="yes"/>
      <point x="495" y="114"/>
      <point x="417" y="57"/>
      <point x="307" y="57" type="curve" smooth="yes"/>
      <point x="216" y="57"/>
      <point x="134" y="96"/>
      <point x="62" y="173" type="curve"/>
      <point x="11" y="120" type="line"/>
      <point x="88" y="36"/>
      <point x="193" y="-10"/>
    </contour>
  </outline>
</glyph>
<glyph name="Z" format="2">
  <advance width="604"/>
  <unicode hex="005A"/>
  <anchor x="308" y="700" name="top"/>
  <outline>
    <contour>
      <point x="24" y="0" type="line"/>
      <point x="578" y="0" type="line"/>
      <point x="578" y="68" type="line"/>
      <point x="123" y="68" type="line"/>
      <point x="570" y="645" type="line"/>
      <point x="570" y="700" type="line"/>
      <point x="28" y="700" type="line"/>
      <point x="28" y="632" type="line"/>
      <point x="469" y="632" type="line"/>
      <point x="24" y="55" type="line"/>
    </contour>
  </outline>
</glyph>
<glyph name="asciicircum" format="2">
  <advance width="536"/>
  <unicode hex="005E"/>
  <outline>
    <contour>
      <point x="49" y="350" type="line"/>
      <point x="117" y="350" type="line"/>
      <point x="268" y="635" type="line"/>
      <point x="419" y="350" type="line"/>
      <point x="488" y="350" type="line"/>
      <point x="301" y="700" type="line"/>
      <point x="236" y="700" type="line"/>
    </contour>
  </outline>
</glyph>
<glyph name="grave" format="2">
  <advance width="600"/>
  <unicode hex="0060"/>
  <outline>
    <contour>
      <point x="290" y="600" type="line"/>
      <point x="355" y="600" type="line"/>
      <point x="263" y="716" type="line"/>
      <point x="167" y="716" type="line"/>
    </contour>
  </outline>
</glyph>
<glyph name="c" format="2">
  <advance width="513"/>
  <unicode hex="0063"/>
  <anchor x="294" y="501" name="top"/>
  <anchor x="296" y="0" name="bottom"/>
  <outline>
    <contour>
      <point x="295" y="-9" type="curve" smooth="yes"/>
      <point x="367" y="-9"/>
      <point x="436" y="20"/>
      <point x="489" y="71" type="curve"/>
      <point x="443" y="121" type="line"/>
      <point x="400" y="79"/>
      <point x="351" y="58"/>
      <point x="297" y="58" type="curve" smooth="yes"/>
      <point x="194" y="58"/>
      <point x="113" y="142"/>
      <point x="113" y="251" type="curve" smooth="yes"/>
      <point x="113" y="358"/>
      <point x="193" y="443"/>
      <point x="296" y="443" type="curve" smooth="yes"/>
      <point x="350" y="443"/>
      <point x="404" y="420"/>
      <point x="444" y="378" type="curve"/>
      <point x="491" y="432" type="line"/>
      <point x="439" y="482"/>
      <point x="368" y="511"/>
      <point x="295" y="511" type="curve" smooth="yes"/>
      <point x="152" y="511"/>
      <point x="40" y="396"/>
      <point x="40" y="251" type="curve" smooth="yes"/>
      <point x="40" y="105"/>
      <point x="152" y="-9"/>
    </contour>
  </outline>
</glyph>
<glyph name="i" format="2">
  <advance width="200"/>
  <unicode hex="0069"/>
  <anchor x="100" y="501" name="top"/>
  <anchor x="137" y="0" name="bottom"/>
  <outline>
    <contour>
      <point x="63" y="0" type="line"/>
      <point x="137" y="0" type="line"/>
      <point x="137" y="501" type="line"/>
      <point x="63" y="501" type="line"/>
    </contour>
    <contour>
      <point x="100" y="597" type="curve" smooth="yes"/>
      <point x="128" y="597"/>
      <point x="150" y="620"/>
      <point x="150" y="647" type="curve" smooth="yes"/>
      <point x="150" y="675"/>
      <point x="128" y="697"/>
      <point x="100" y="697" type="curve" smooth="yes"/>
      <point x="73" y="697"/>
      <point x="50" y="675"/>
      <point x="50" y="647" type="curve" smooth="yes"/>
      <point x="50" y="620"/>
      <point x="73" y="597"/>
    </contour>
  </outline>
</glyph>
<glyph name="l" format="2">
  <advance width="200"/>
  <unicode hex="006C"/>
  <anchor x="100" y="700" name="top"/>
  <anchor x="100" y="0" name="bottom"/>
  <outline>
    <contour>
      <point x="63" y="0" type="line"/>
      <point x="137" y="0" type="line"/>
      <point x="137" y="717" type="line"/>
      <point x="63" y="700" type="line"/>
    </contour>
  </outline>
</glyph>
<glyph name="braceleft" format="2">
  <advance width="382"/>
  <unicode hex="007B"/>
  <outline>
    <contour>
      <point x="262" y="-214" type="curve" smooth="yes"/>
      <point x="289" y="-214"/>
      <point x="313" y="-210"/>
      <point x="342" y="-199" type="curve"/>
      <point x="327" y="-143" type="line"/>
      <point x="304" y="-151"/>
      <point x="286" y="-154"/>
      <point x="265" y="-154" type="curve" smooth="yes"/>
      <point x="200" y="-154"/>
      <point x="174" y="-103"/>
      <point x="202" y="-33" type="curve" smooth="yes"/>
      <point x="250" y="89" type="line" smooth="yes"/>
      <point x="278" y="160"/>
      <point x="245" y="227"/>
      <point x="171" y="249" type="curve"/>
      <point x="244" y="269"/>
      <point x="279" y="336"/>
      <point x="250" y="409" type="curve" smooth="yes"/>
      <point x="202" y="530" type="line" smooth="yes"/>
      <point x="174" y="600"/>
      <point x="200" y="651"/>
      <point x="265" y="651" type="curve" smooth="yes"/>
      <point x="286" y="651"/>
      <point x="304" y="648"/>
      <point x="327" y="640" type="curve"/>
      <point x="342" y="696" type="line"/>
      <point x="313" y="707"/>
      <point x="289" y="711"/>
      <point x="262" y="711" type="curve" smooth="yes"/>
      <point x="145" y="711"/>
      <point x="91" y="623"/>
      <point x="138" y="512" type="curve" smooth="yes"/>
      <point x="180" y="413" type="line" smooth="yes"/>
      <point x="211" y="339"/>
      <point x="180" y="279"/>
      <point x="107" y="279" type="curve" smooth="yes"/>
      <point x="28" y="279" type="line"/>
      <point x="28" y="218" type="line"/>
      <point x="107" y="218" type="line" smooth="yes"/>
      <point x="180" y="218"/>
      <point x="211" y="159"/>
      <point x="180" y="85" type="curve" smooth="yes"/>
      <point x="138" y="-16" type="line" smooth="yes"/>
      <point x="92" y="-127"/>
      <point x="145" y="-214"/>
    </contour>
  </outline>
</glyph>
<glyph name="bar" format="2">
  <advance width="274"/>
  <unicode hex="007C"/>
  <outline>
    <contour>
      <point x="103" y="-204" type="line"/>
      <point x="171" y="-204" type="line"/>
      <point x="171" y="700" type="line"/>
      <point x="103" y="700" type="line"/>
    </contour>
  </outline>
</glyph>
<glyph name="cent" format="2">
  <advance width="515"/>
  <unicode hex="00A2"/>
  <outline>
    <contour>
      <point x="263" y="-118" type="line"/>
      <point x="314" y="-118" type="line"/>
      <point x="314" y="-8" type="line"/>
      <point x="379" y="-4"/>
      <point x="441" y="25"/>
      <point x="489" y="71" type="curve"/>
      <point x="443" y="121" type="line"/>
      <point x="405" y="83"/>
      <point x="361" y="63"/>
      <point x="314" y="59" type="curve"/>
      <point x="314" y="442" type="line"/>
      <point x="362" y="438"/>
      <point x="408" y="415"/>
      <point x="444" y="378" type="curve"/>
      <point x="491" y="432" type="line"/>
      <point x="444" y="478"/>
      <point x="380" y="506"/>
      <point x="314" y="510" type="curve"/>
      <point x="314" y="609" type="line"/>
      <point x="263" y="609" type="line"/>
      <point x="263" y="509" type="line"/>
      <point x="136" y="493"/>
      <point x="40" y="385"/>
      <point x="40" y="251" type="curve" smooth="yes"/>
      <point x="40" y="116"/>
      <point x="136" y="8"/>
      <point x="263" y="-7" type="curve"/>
    </contour>
    <contour>
      <point x="113" y="251" type="curve" smooth="yes"/>
      <point x="113" y="346"/>
      <point x="176" y="424"/>
      <point x="263" y="440" type="curve"/>
      <point x="263" y="61" type="line"/>
      <point x="177" y="77"/>
      <point x="113" y="154"/>
    </contour>
  </outline>
</glyph>
<glyph name="dieresis" format="2">
  <advance width="600"/>
  <unicode hex="00A8"/>
  <outline>
    <contour>
      <point x="213" y="611" type="curve" smooth="yes"/>
      <point x="241" y="611"/>
      <point x="263" y="632"/>
      <point x="263" y="659" type="curve" smooth="yes"/>
      <point x="263" y="686"/>
      <point x="241" y="707"/>
      <point x="213" y="707" type="curve" smooth="yes"/>
      <point x="185" y="707"/>
      <point x="163" y="686"/>
      <point x="163" y="659" type="curve" smooth="yes"/>
      <point x="163" y="632"/>
      <point x="185" y="611"/>
    </contour>
    <contour>
      <point x="387" y="611" type="curve" smooth="yes"/>
      <point x="415" y="611"/>
      <point x="437" y="632"/>
      <point x="437" y="659" type="curve" smooth="yes"/>
      <point x="437" y="686"/>
      <point x="415" y="707"/>
      <point x="387" y="707" type="curve" smooth="yes"/>
      <point x="359" y="707"/>
      <point x="337" y="686"/>
      <point x="337" y="659" type="curve" smooth="yes"/>
      <point x="337" y="632"/>
      <point x="359" y="611"/>
    </contour>
  </outline>
</glyph>
<glyph name="registered" format="2">
  <advance width="489"/>
  <unicode hex="00AE"/>
  <outline>
    <contour>
      <point x="244" y="311" type="curve" smooth="yes"/>
      <point x="356" y="311"/>
      <point x="444" y="399"/>
      <point x="444" y="512" type="curve" smooth="yes"/>
      <point x="444" y="625"/>
      <point x="356" y="713"/>
      <point x="244" y="713" type="curve" smooth="yes"/>
      <point x="132" y="713"/>
      <point x="45" y="625"/>
      <point x="45" y="512" type="curve" smooth="yes"/>
      <point x="45" y="399"/>
      <point x="132" y="311"/>
    </contour>
    <contour>
      <point x="244" y="345" type="curve" smooth="yes"/>
      <point x="151" y="345"/>
      <point x="82" y="417"/>
      <point x="82" y="512" type="curve" smooth="yes"/>
      <point x="82" y="608"/>
      <point x="151" y="679"/>
      <point x="244" y="679" type="curve" smooth="yes"/>
      <point x="339" y="679"/>
      <point x="407" y="608"/>
      <point x="407" y="512" type="curve" smooth="yes"/>
      <point x="407" y="416"/>
      <point x="339" y="345"/>
    </contour>
    <contour>
      <point x="178" y="419" type="line"/>
      <point x="212" y="419" type="line"/>
      <point x="212" y="490" type="line"/>
      <point x="248" y="490" type="line"/>
      <point x="290" y="419" type="line"/>
      <point x="327" y="419" type="line"/>
      <point x="281" y="497" type="line"/>
      <point x="302" y="507"/>
      <point x="316" y="527"/>
      <point x="316" y="550" type="curve" smooth="yes"/>
      <point x="316" y="586"/>
      <point x="292" y="607"/>
      <point x="252" y="607" type="curve" smooth="yes"/>
      <point x="178" y="607" type="line"/>
    </contour>
    <contour>
      <point x="248" y="579" type="line" smooth="yes"/>
      <point x="270" y="579"/>
      <point x="282" y="568"/>
      <point x="282" y="548" type="curve" smooth="yes"/>
      <point x="282" y="528"/>
      <point x="269" y="516"/>
      <point x="247" y="516" type="curve" smooth="yes"/>
      <point x="212" y="516" type="line"/>
      <point x="212" y="579" type="line"/>
    </contour>
  </outline>
</glyph>
<glyph name="acute" format="2">
  <advance width="600"/>
  <unicode hex="00B4"/>
  <outline>
    <contour>
      <point x="236" y="600" type="line"/>
      <point x="301" y="600" type="line"/>
      <point x="425" y="716" type="line"/>
      <point x="330" y="716" type="line"/>
    </contour>
  </outline>
</glyph>
<glyph name="multiply" format="2">
  <advance width="600"/>
  <unicode hex="00D7"/>
  <outline>
    <contour>
      <point x="152" y="162" type="line"/>
      <point x="299" y="318" type="line"/>
      <point x="446" y="161" type="line"/>
      <point x="486" y="202" type="line"/>
      <point x="338" y="360" type="line"/>
      <point x="486" y="517" type="line"/>
      <point x="447" y="557" type="line"/>
      <point x="300" y="400" type="line"/>
      <point x="152" y="557" type="line"/>
      <point x="114" y="516" type="line"/>
      <point x="261" y="358" type="line"/>
      <point x="115" y="202" type="line"/>
    </contour>
  </outline>
</glyph>
<glyph name="Hbar" format="2">
  <advance width="727"/>
  <unicode hex="0126"/>
  <outline>
    <contour>
      <point x="83" y="0" type="line"/>
      <point x="160" y="0" type="line"/>
      <point x="160" y="318" type="line"/>
      <point x="567" y="318" type="line"/>
      <point x="567" y="0" type="line"/>
      <point x="644" y="0" type="line"/>
      <point x="644" y="521" type="line"/>
      <point x="712" y="521" type="line"/>
      <point x="712" y="582" type="line"/>
      <point x="644" y="582" type="line"/>
      <point x="644" y="700" type="line"/>
      <point x="567" y="700" type="line"/>
      <point x="567" y="582" type="line"/>
      <point x="160" y="582" type="line"/>
      <point x="160" y="700" type="line"/>
      <point x="83" y="700" type="line"/>
      <point x="83" y="582" type="line"/>
      <point x="15" y="582" type="line"/>
      <point x="15" y="521" type="line"/>
      <point x="83" y="521" type="line"/>
    </contour>
    <contour>
      <point x="160" y="386" type="line"/>
      <point x="160" y="521" type="line"/>
      <point x="567" y="521" type="line"/>
      <point x="567" y="386" type="line"/>
    </contour>
  </outline>
</glyph>
<glyph name="Lslash" format="2">
  <advance width="613"/>
  <unicode hex="0141"/>
  <outline>
    <contour>
      <point x="91" y="0" type="line"/>
      <point x="585" y="0" type="line"/>
      <point x="585" y="69" type="line"/>
      <point x="168" y="69" type="line"/>
      <point x="168" y="290" type="line"/>
      <point x="368" y="441" type="line"/>
      <point x="368" y="515" type="line"/>
      <point x="168" y="364" type="line"/>
      <point x="168" y="700" type="line"/>
      <point x="91" y="700" type="line"/>
      <point x="91" y="306" type="line"/>
      <point x="11" y="245" type="line"/>
      <point x="11" y="171" type="line"/>
      <point x="91" y="232" type="line"/>
    </contour>
  </outline>
</glyph>
<glyph name="eng" format="2">
  <advance width="549"/>
  <unicode hex="014B"/>
  <outline>
    <contour>
      <point x="360" y="-208" type="curve" smooth="yes"/>
      <point x="443" y="-208"/>
      <point x="488" y="-162"/>
      <point x="488" y="-83" type="curve" smooth="yes"/>
      <point x="488" y="317" type="line" smooth="yes"/>
      <point x="488" y="432"/>
      <point x="409" y="511"/>
      <point x="295" y="511" type="curve" smooth="yes"/>
      <point x="230" y="511"/>
      <point x="176" y="488"/>
      <point x="137" y="442" type="curve"/>
      <point x="137" y="501" type="line"/>
      <point x="63" y="501" type="line"/>
      <point x="63" y="0" type="line"/>
      <point x="137" y="0" type="line"/>
      <point x="137" y="369" type="line"/>
      <point x="167" y="418"/>
      <point x="215" y="446"/>
      <point x="275" y="446" type="curve" smooth="yes"/>
      <point x="361" y="446"/>
      <point x="415" y="391"/>
      <point x="415" y="302" type="curve" smooth="yes"/>
      <point x="415" y="-76" type="line" smooth="yes"/>
      <point x="415" y="-124"/>
      <point x="396" y="-144"/>
      <point x="352" y="-144" type="curve" smooth="yes"/>
      <point x="336" y="-144"/>
      <point x="326" y="-143"/>
      <point x="313" y="-140" type="curve"/>
      <point x="313" y="-202" type="line"/>
      <point x="327" y="-205"/>
      <point x="344" y="-208"/>
    </contour>
  </outline>
</glyph>
<glyph name="Scedilla" format="2">
  <advance width="600"/>
  <unicode hex="015E"/>
  <outline>
    <contour>
      <point x="274" y="-226" type="curve" smooth="yes"/>
      <point x="341" y="-226"/>
      <point x="389" y="-188"/>
      <point x="389" y="-135" type="curve" smooth="yes"/>
      <point x="389" y="-87"/>
      <point x="352" y="-56"/>
      <point x="294" y="-53" type="curve"/>
      <point x="306" y="-10" type="line"/>
      <point x="462" y="-10"/>
      <point x="572" y="76"/>
      <point x="572" y="199" type="curve" smooth="yes"/>
      <point x="572" y="308"/>
      <point x="506" y="366"/>
      <point x="353" y="391" type="curve" smooth="yes"/>
      <point x="253" y="407" type="line" smooth="yes"/>
      <point x="151" y="423"/>
      <point x="111" y="455"/>
      <point x="111" y="520" type="curve" smooth="yes"/>
      <point x="111" y="593"/>
      <point x="179" y="643"/>
      <point x="279" y="643" type="curve" smooth="yes"/>
      <point x="359" y="643"/>
      <point x="437" y="614"/>
      <point x="514" y="556" type="curve"/>
      <point x="558" y="616" type="line"/>
      <point x="479" y="676"/>
      <point x="380" y="709"/>
      <point x="282" y="709" type="curve" smooth="yes"/>
      <point x="135" y="709"/>
      <point x="36" y="630"/>
      <point x="36" y="514" type="curve" smooth="yes"/>
      <point x="36" y="415"/>
      <point x="98" y="359"/>
      <point x="233" y="337" type="curve" smooth="yes"/>
      <point x="334" y="321" type="line" smooth="yes"/>
      <point x="449" y="302"/>
      <point x="495" y="267"/>
      <point x="495" y="195" type="curve" smooth="yes"/>
      <point x="495" y="114"/>
      <point x="417" y="57"/>
      <point x="307" y="57" type="curve" smooth="yes"/>
      <point x="216" y="57"/>
      <point x="134" y="96"/>
      <point x="62" y="173" type="curve"/>
      <point x="11" y="120" type="line"/>
      <point x="78" y="46"/>
      <point x="167" y="2"/>
      <point x="263" y="-8" type="curve"/>
      <point x="240" y="-89" type="line"/>
      <point x="269" y="-89" type="line" smooth="yes"/>
      <point x="312" y="-89"/>
      <point x="338" y="-107"/>
      <point x="338" y="-136" type="curve" smooth="yes"/>
      <point x="338" y="-165"/>
      <point x="314" y="-185"/>
      <point x="274" y="-185" type="curve" smooth="yes"/>
      <point x="244" y="-185"/>
      <point x="216" y="-174"/>
      <point x="191" y="-153" type="curve"/>
      <point x="161" y="-185" type="line"/>
      <point x="190" y="-212"/>
      <point x="230" y="-226"/>
    </contour>
  </outline>
</glyph>
<glyph name="Tcedilla" format="2">
  <advance width="617"/>
  <unicode hex="0162"/>
  <outline>
    <contour>
      <point x="295" y="-228" type="curve" smooth="yes"/>
      <point x="362" y="-228"/>
      <point x="410" y="-190"/>
      <point x="410" y="-137" type="curve" smooth="yes"/>
      <point x="410" y="-89"/>
      <point x="373" y="-58"/>
      <point x="315" y="-55" type="curve"/>
      <point x="330" y="0" type="line"/>
      <point x="347" y="0" type="line"/>
      <point x="347" y="631" type="line"/>
      <point x="600" y="631" type="line"/>
      <point x="600" y="700" type="line"/>
      <point x="17" y="700" type="line"/>
      <point x="17" y="631" type="line"/>
      <point x="270" y="631" type="line"/>
      <point x="270" y="0" type="line"/>
      <point x="287" y="0" type="line"/>
      <point x="261" y="-91" type="line"/>
      <point x="290" y="-91" type="line" smooth="yes"/>
      <point x="333" y="-91"/>
      <point x="359" y="-109"/>
      <point x="359" y="-138" type="curve" smooth="yes"/>
      <point x="359" y="-167"/>
      <point x="335" y="-187"/>
      <point x="295" y="-187" type="curve" smooth="yes"/>
      <point x="265" y="-187"/>
      <point x="237" y="-176"/>
      <point x="212" y="-155" type="curve"/>
      <point x="182" y="-187" type="line"/>
      <point x="211" y="-214"/>
      <point x="251" y="-228"/>
    </contour>
  </outline>
</glyph>
<glyph name="Tbar" format="2">
  <advance width="617"/>
  <unicode hex="0166"/>
  <outline>
    <contour>
      <point x="270" y="0" type="line"/>
      <point x="347" y="0" type="line"/>
      <point x="347" y="306" type="line"/>
      <point x="496" y="306" type="line"/>
      <point x="496" y="372" type="line"/>
      <point x="347" y="372" type="line"/>
      <point x="347" y="631" type="line"/>
      <point x="600" y="631" type="line"/>
      <point x="600" y="700" type="line"/>
      <point x="17" y="700" type="line"/>
      <point x="17" y="631" type="line"/>
      <point x="270" y="631" type="line"/>
      <point x="270" y="372" type="line"/>
      <point x="121" y="372" type="line"/>
      <point x="121" y="306" type="line"/>
      <point x="270" y="306" type="line"/>
    </contour>
  </outline>
</glyph>
<glyph name="circumflex" format="2">
  <advance width="600"/>
  <unicode hex="02C6"/>
  <outline>
    <contour>
      <point x="383" y="596" type="line"/>
      <point x="444" y="596" type="line"/>
      <point x="340" y="717" type="line"/>
      <point x="260" y="717" type="line"/>
      <point x="156" y="596" type="line"/>
      <point x="216" y="596" type="line"/>
      <point x="299" y="676" type="line"/>
    </contour>
  </outline>
</glyph>
<glyph name="caron" format="2">
  <advance width="600"/>
  <unicode hex="02C7"/>
  <outline>
    <contour>
      <point x="218" y="718" type="line"/>
      <point x="156" y="718" type="line"/>
      <point x="260" y="598" type="line"/>
      <point x="340" y="598" type="line"/>
      <point x="444" y="718" type="line"/>
      <point x="382" y="718" type="line"/>
      <point x="300" y="639" type="line"/>
    </contour>
  </outline>
</glyph>
<glyph name="breve" format="2">
  <advance width="600"/>
  <unicode hex="02D8"/>
  <outline>
    <contour>
      <point x="300" y="592" type="curve"/>
      <point x="379" y="592"/>
      <point x="436" y="638"/>
      <point x="454" y="715" type="curve"/>
      <point x="402" y="728" type="line"/>
      <point x="387" y="671"/>
      <point x="351" y="641"/>
      <point x="300" y="641" type="curve"/>
      <point x="247" y="641"/>
      <point x="212" y="670"/>
      <point x="198" y="728" type="curve"/>
      <point x="146" y="715" type="line"/>
      <point x="163" y="638"/>
      <point x="220" y="592"/>
    </contour>
  </outline>
</glyph>
<glyph name="ring" format="2">
  <advance width="600"/>
  <unicode hex="02DA"/>
  <outline>
    <contour>
      <point x="300" y="583" type="curve" smooth="yes"/>
      <point x="362" y="583"/>
      <point x="412" y="633"/>
      <point x="412" y="694" type="curve" smooth="yes"/>
      <point x="412" y="755"/>
      <point x="362" y="805"/>
      <point x="300" y="805" type="curve" smooth="yes"/>
      <point x="238" y="805"/>
      <point x="188" y="755"/>
      <point x="188" y="694" type="curve" smooth="yes"/>
      <point x="188" y="633"/>
      <point x="238" y="583"/>
    </contour>
    <contour>
      <point x="300" y="624" type="curve" smooth="yes"/>
      <point x="261" y="624"/>
      <point x="230" y="655"/>
      <point x="230" y="694" type="curve"/>
      <point x="230" y="733"/>
      <point x="261" y="764"/>
      <point x="300" y="764" type="curve" smooth="yes"/>
      <point x="339" y="764"/>
      <point x="370" y="733"/>
      <point x="370" y="694" type="curve" smooth="yes"/>
      <point x="370" y="655"/>
      <point x="339" y="624"/>
    </contour>
  </outline>
</glyph>
<glyph name="ogonek" format="2">
  <advance width="600"/>
  <unicode hex="02DB"/>
  <outline>
    <contour>
      <point x="294" y="-221" type="curve" smooth="yes"/>
      <point x="322" y="-221"/>
      <point x="346" y="-214"/>
      <point x="368" y="-200" type="curve"/>
      <point x="353" y="-161" type="line"/>
      <point x="339" y="-171"/>
      <point x="322" y="-175"/>
      <point x="305" y="-175" type="curve" smooth="yes"/>
      <point x="268" y="-175"/>
      <point x="247" y="-156"/>
      <point x="247" y="-123" type="curve" smooth="yes"/>
      <point x="247" y="-84"/>
      <point x="280" y="-46"/>
      <point x="353" y="0" type="curve"/>
      <point x="319" y="16" type="line"/>
      <point x="232" y="-40"/>
      <point x="196" y="-83"/>
      <point x="196" y="-135" type="curve" smooth="yes"/>
      <point x="196" y="-187"/>
      <point x="235" y="-221"/>
    </contour>
  </outline>
</glyph>
<glyph name="tilde" format="2">
  <advance width="600"/>
  <unicode hex="02DC"/>
  <outline>
    <contour>
      <point x="184" y="594" type="line"/>
      <point x="192" y="635"/>
      <point x="204" y="651"/>
      <point x="228" y="651" type="curve"/>
      <point x="270" y="651"/>
      <point x="320" y="596"/>
      <point x="373" y="596" type="curve" smooth="yes"/>
      <point x="421" y="596"/>
      <point x="453" y="629"/>
      <point x="467" y="696" type="curve"/>
      <point x="416" y="706" type="line"/>
      <point x="406" y="664"/>
      <point x="394" y="649"/>
      <point x="371" y="649" type="curve"/>
      <point x="329" y="649"/>
      <point x="280" y="704"/>
      <point x="226" y="704" type="curve" smooth="yes"/>
      <point x="177" y="704"/>
      <point x="147" y="671"/>
      <point x="132" y="604" type="curve"/>
    </contour>
  </outline>
</glyph>
<glyph name="uni2070" format="2">
  <advance width="350"/>
  <unicode hex="2070"/>
  <outline>
    <contour>
      <point x="176" y="345" type="curve" smooth="yes"/>
      <point x="263" y="345"/>
      <point x="323" y="418"/>
      <point x="324" y="525" type="curve" smooth="yes"/>
      <point x="323" y="632"/>
      <point x="263" y="705"/>
      <point x="176" y="705" type="curve" smooth="yes"/>
      <point x="87" y="705"/>
      <point x="27" y="632"/>
      <point x="27" y="525" type="curve" smooth="yes"/>
      <point x="27" y="418"/>
      <point x="87" y="345"/>
    </contour>
    <contour>
      <point x="176" y="391" type="curve" smooth="yes"/>
      <point x="116" y="391"/>
      <point x="79" y="443"/>
      <point x="78" y="525" type="curve" smooth="yes"/>
      <point x="79" y="607"/>
      <point x="116" y="660"/>
      <point x="176" y="660" type="curve" smooth="yes"/>
      <point x="235" y="660"/>
      <point x="273" y="607"/>
      <point x="273" y="525" type="curve" smooth="yes"/>
      <point x="273" y="443"/>
      <point x="235" y="391"/>
    </contour>
  </outline>
</glyph>
<glyph name="uni2075" format="2">
  <advance width="309"/>
  <unicode hex="2075"/>
  <outline>
    <contour>
      <point x="147" y="345" type="curve" smooth="yes"/>
      <point x="228" y="345"/>
      <point x="284" y="391"/>
      <point x="284" y="460" type="curve" smooth="yes"/>
      <point x="284" y="525"/>
      <point x="232" y="569"/>
      <point x="155" y="569" type="curve" smooth="yes"/>
      <point x="132" y="569"/>
      <point x="109" y="565"/>
      <point x="86" y="556" type="curve"/>
      <point x="90" y="655" type="line"/>
      <point x="264" y="655" type="line"/>
      <point x="264" y="700" type="line"/>
      <point x="48" y="700" type="line"/>
      <point x="40" y="523" type="line"/>
      <point x="72" y="513" type="line"/>
      <point x="97" y="523"/>
      <point x="122" y="527"/>
      <point x="145" y="527" type="curve" smooth="yes"/>
      <point x="195" y="527"/>
      <point x="231" y="498"/>
      <point x="231" y="459" type="curve" smooth="yes"/>
      <point x="231" y="417"/>
      <point x="198" y="389"/>
      <point x="149" y="389" type="curve" smooth="yes"/>
      <point x="112" y="389"/>
      <point x="83" y="400"/>
      <point x="52" y="428" type="curve"/>
      <point x="20" y="392" type="line"/>
      <point x="54" y="361"/>
      <point x="98" y="345"/>
    </contour>
  </outline>
</glyph>
<glyph name="uni2191" format="2">
  <advance width="505"/>
  <unicode hex="2191"/>
  <outline>
    <contour>
      <point x="216" y="0" type="line"/>
      <point x="284" y="0" type="line"/>
      <point x="284" y="614" type="line"/>
      <point x="449" y="395" type="line"/>
      <point x="496" y="432" type="line"/>
      <point x="251" y="750" type="line"/>
      <point x="5" y="432" type="line"/>
      <point x="53" y="394" type="line"/>
      <point x="216" y="609" type="line"/>
    </contour>
  </outline>
</glyph>
<glyph name="a.school" format="2">
  <advance width="590"/>
  <anchor x="295" y="501" name="top"/>
  <anchor x="527" y="0" name="bottom"/>
  <outline>
    <contour>
      <point x="292" y="-8" type="curve" smooth="yes"/>
      <point x="355" y="-8"/>
      <point x="411" y="13"/>
      <point x="454" y="53" type="curve"/>
      <point x="454" y="0" type="line"/>
      <point x="527" y="0" type="line"/>
      <point x="527" y="501" type="line"/>
      <point x="453" y="501" type="line"/>
      <point x="453" y="452" type="line"/>
      <point x="408" y="489"/>
      <point x="351" y="509"/>
      <point x="293" y="509" type="curve" smooth="yes"/>
      <point x="150" y="509"/>
      <point x="40" y="396"/>
      <point x="40" y="251" type="curve" smooth="yes"/>
      <point x="40" y="105"/>
      <point x="151" y="-8"/>
    </contour>
    <contour>
      <point x="299" y="57" type="curve" smooth="yes"/>
      <point x="194" y="57"/>
      <point x="113" y="142"/>
      <point x="113" y="252" type="curve" smooth="yes"/>
      <point x="113" y="362"/>
      <point x="194" y="444"/>
      <point x="299" y="444" type="curve" smooth="yes"/>
      <point x="361" y="444"/>
      <point x="418" y="418"/>
      <point x="453" y="375" type="curve"/>
      <point x="453" y="127" type="line"/>
      <point x="418" y="83"/>
      <point x="362" y="57"/>
    </contour>
  </outline>
</glyph>
<glyph name="uni0302" format="2">
  <anchor x="300" y="501" name="_top"/>
  <outline>
    <contour>
      <point x="383" y="596" type="line"/>
      <point x="444" y="596" type="line"/>
      <point x="340" y="717" type="line"/>
      <point x="260" y="717" type="line"/>
      <point x="156" y="596" type="line"/>
      <point x="216" y="596" type="line"/>
      <point x="299" y="676" type="line"/>
    </contour>
  </outline>
</glyph>
<glyph name="uni0307" format="2">
  <anchor x="300" y="501" name="_top"/>
  <outline>
    <contour>
      <point x="300" y="602" type="curve" smooth="yes"/>
      <point x="327" y="602"/>
      <point x="349" y="624"/>
      <point x="349" y="651" type="curve" smooth="yes"/>
      <point x="349" y="678"/>
      <point x="327" y="700"/>
      <point x="300" y="700" type="curve" smooth="yes"/>
      <point x="273" y="700"/>
      <point x="251" y="678"/>
      <point x="251" y="651" type="curve" smooth="yes"/>
      <point x="251" y="624"/>
      <point x="273" y="602"/>
    </contour>
  </outline>
</glyph>
<glyph name="uni0326" format="2">
  <guideline x="300" y="-13" angle="90.0" identifier="TB9epO5wox"/>
  <anchor x="300" y="0" name="_bottom"/>
  <outline>
    <contour>
      <point x="222" y="-264" type="line"/>
      <point x="277" y="-264" type="line"/>
      <point x="337" y="-85" type="line"/>
      <point x="263" y="-85" type="line"/>
    </contour>
  </outline>
</glyph>
